<?xml version="1.0" standalone="no"?>
<!-- <?xml-stylesheet type="text/css" href="../../css/main.css"?> -->
<!DOCTYPE svg PUBLIC "-//W3C//DTD SVG 20010904//EN"
 "http://www.w3.org/TR/2001/REC-SVG-20010904/DTD/svg10.dtd">
<svg version="1.0" xmlns="http://www.w3.org/2000/svg"
 width="400.000000pt" height="400.000000pt" viewBox="0 0 400.000000 400.000000"
 preserveAspectRatio="xMidYMid meet">

<g transform="translate(0.000000,400.000000) scale(0.100000,-0.100000)" fill="#007bff" stroke="#007bff">
<path d="M409 3981 c-189 -60 -339 -222 -389 -416 -20 -76 -20 -111 -20 -1549
0 -1631 -3 -1542 67 -1685 27 -54 58 -96 108 -146 81 -81 161 -127 271 -155
75 -19 116 -20 1554 -20 1443 0 1479 0 1555 20 209 53 372 216 425 425 20 76
20 112 20 1555 0 1443 0 1479 -20 1555 -23 90 -70 180 -132 249 -56 65 -174
141 -255 166 -64 20 -92 20 -1597 19 -1445 0 -1534 -1 -1587 -18z m881 -883
l0 -683 -197 197 c-109 108 -208 201 -220 207 -91 46 -192 -52 -154 -151 13
-33 615 -633 651 -648 18 -8 44 -10 67 -5 33 6 79 47 341 308 167 166 313 319
323 340 46 89 -38 187 -138 162 -18 -4 -102 -80 -231 -208 l-202 -201 2 679 3
680 970 0 970 0 60 -24 c82 -33 173 -124 206 -206 l24 -60 0 -1475 0 -1475
-23 -57 c-41 -102 -108 -169 -211 -210 -54 -22 -71 -23 -438 -26 l-383 -3 0
682 0 683 208 -207 208 -207 46 0 c39 0 52 5 82 34 32 29 36 39 36 82 l0 48
-317 318 c-174 174 -329 322 -345 329 -16 7 -43 8 -65 4 -33 -6 -79 -48 -342
-308 -328 -327 -352 -357 -331 -422 23 -69 102 -105 163 -74 12 6 111 99 220
207 l197 197 0 -683 0 -683 -972 3 -973 3 -57 23 c-100 40 -170 110 -210 210
l-23 57 0 1475 0 1475 24 60 c47 117 161 207 286 225 28 4 206 8 398 9 l347 1
0 -682z"/>
</g>
</svg>
